# xmcd CD database file
#
# Track frame offsets:
#	150
#	36992
#	92245
#	141647
#	182785
#	242280
#	302415
#
# Disc length: 4555 seconds
#
# Revision: 0
# Processed by: cddbd v1.5.2PL0 Copyright (c) Steve Scherf et al.
# Submitted via: CDex 1.51
#
DISCID=5a11c907
DTITLE=Mark Whitfield And The Groove Masters - Mark Whitfield And The Groove Masters
DYEAR=2006
DGENRE=Jazz
TTITLE0=The Whip
TTITLE1=Bye Bye Blackbird
TTITLE2=Willow Weep For Me
TTITLE3=OGD (Road Song)
TTITLE4=Going Through Changes
TTITLE5=Impressions
TTITLE6=Midnight Sun/What's New
EXTD=YEAR: 2006
EXTT0=
EXTT1=
EXTT2=
EXTT3=
EXTT4=
EXTT5=
EXTT6=
PLAYORDER=
